<?xml version="1.0" standalone="no"?>
<!DOCTYPE svg PUBLIC "-//W3C//DTD SVG 20010904//EN"
 "http://www.w3.org/TR/2001/REC-SVG-20010904/DTD/svg10.dtd">
<svg version="1.0" xmlns="http://www.w3.org/2000/svg"
 width="1674.000000pt" height="1119.000000pt" viewBox="0 0 1674.000000 1119.000000"
 preserveAspectRatio="xMidYMid meet">

<g transform="translate(0.000000,1119.000000) scale(0.100000,-0.100000)"
fill="#000000" stroke="none">
<path d="M0 5595 l0 -5595 8370 0 8370 0 0 5595 0 5595 -8370 0 -8370 0 0
-5595z m12526 4542 c7 -23 89 -238 104 -272 5 -11 27 -67 49 -125 101 -265
133 -346 141 -365 6 -11 44 -110 85 -220 41 -110 79 -209 84 -220 5 -11 16
-40 26 -65 10 -25 21 -54 26 -65 5 -11 18 -45 29 -75 11 -30 25 -64 29 -75 5
-11 17 -42 27 -70 10 -27 24 -61 31 -75 7 -14 13 -30 13 -36 0 -6 6 -24 14
-40 8 -16 35 -85 61 -154 49 -130 110 -290 124 -325 5 -11 16 -38 24 -60 32
-84 78 -201 87 -220 11 -26 42 -107 135 -350 41 -110 79 -209 85 -220 5 -11
34 -85 65 -165 31 -80 81 -210 112 -290 142 -369 190 -493 209 -537 8 -17 14
-36 14 -42 0 -6 5 -19 10 -29 6 -9 30 -71 55 -137 25 -66 49 -129 54 -140 5
-11 16 -40 26 -65 10 -25 21 -54 26 -65 5 -11 36 -92 69 -180 33 -88 64 -169
69 -180 5 -11 28 -67 50 -125 119 -311 154 -402 172 -445 27 -67 183 -469 234
-605 26 -69 53 -138 60 -155 18 -44 39 -97 86 -220 23 -60 69 -177 101 -258
32 -82 58 -153 58 -158 0 -6 -210 -8 -547 -7 l-548 3 -88 235 c-49 129 -95
253 -104 275 -23 61 -37 97 -98 265 -32 85 -64 169 -71 187 -8 17 -14 36 -14
42 0 6 -4 19 -9 29 -6 9 -53 134 -106 277 -53 143 -103 278 -112 300 -8 22
-21 56 -28 75 -7 19 -28 76 -47 125 l-34 90 -1354 2 -1355 3 -33 -88 c-18 -48
-37 -96 -42 -107 -5 -11 -37 -92 -70 -180 -33 -88 -64 -168 -70 -177 -5 -10
-10 -23 -10 -29 0 -6 -6 -25 -14 -42 -7 -18 -21 -52 -31 -77 -9 -25 -21 -54
-26 -65 -5 -11 -18 -45 -29 -75 -11 -30 -24 -64 -29 -75 -5 -11 -16 -38 -24
-60 -8 -22 -31 -80 -50 -130 -19 -49 -52 -139 -72 -200 -20 -60 -41 -119 -45
-130 -5 -11 -16 -47 -25 -80 -10 -33 -23 -80 -30 -105 -8 -25 -21 -76 -29
-115 -8 -38 -20 -94 -27 -122 l-11 -53 -159 0 c-87 0 -159 2 -159 5 0 5 61
158 80 200 10 23 61 155 121 313 81 214 97 254 119 305 5 12 37 94 70 182 33
88 65 169 70 180 5 11 43 108 84 215 72 190 84 221 112 287 8 17 14 36 14 42
0 6 5 19 10 29 6 9 30 71 55 137 25 66 49 129 54 140 4 11 23 58 40 105 18 47
37 94 42 105 5 11 36 92 70 180 77 202 85 221 149 385 29 74 63 164 76 200 13
36 28 74 34 85 5 11 25 61 44 112 19 51 47 123 61 160 15 37 45 115 67 173 22
58 44 114 49 125 5 11 29 74 54 140 25 66 49 129 54 140 11 25 30 75 72 185
17 47 36 94 40 105 5 11 33 85 64 165 31 80 62 161 70 180 8 19 39 100 70 180
30 80 60 153 65 162 6 10 10 23 10 29 0 6 6 25 14 42 8 18 32 79 55 137 22 58
61 159 86 225 26 66 53 134 61 152 8 17 14 37 14 45 0 8 4 18 8 23 5 6 28 62
52 125 23 63 51 133 60 155 10 22 52 132 95 245 42 113 83 219 90 235 17 41
37 93 78 200 19 50 52 133 72 185 20 52 41 107 47 122 10 26 13 27 92 30 87 3
101 -1 112 -35z m-9108 18 c342 -42 541 -117 904 -342 324 -201 466 -244 556
-168 31 26 80 110 93 159 24 92 48 197 54 239 l6 47 125 0 c122 0 124 0 124
-22 0 -13 -5 -75 -10 -138 -19 -214 -33 -740 -46 -1662 l-6 -427 -92 -3 c-50
-2 -106 -2 -123 0 -31 3 -33 6 -33 40 0 50 -35 298 -55 397 -9 44 -21 100 -26
124 -29 141 -116 391 -189 545 -245 514 -588 835 -1020 953 -105 29 -125 33
-225 48 -456 69 -867 -16 -1173 -242 -233 -172 -394 -420 -463 -713 -31 -130
-34 -466 -6 -605 61 -300 189 -526 442 -780 197 -198 391 -338 1000 -718 88
-55 212 -132 275 -172 63 -40 183 -114 265 -165 271 -169 587 -383 799 -543
755 -569 1089 -1174 1063 -1927 -7 -183 -26 -360 -53 -470 -8 -36 -19 -84 -24
-108 -5 -24 -22 -79 -37 -123 l-27 -79 -440 0 -439 0 6 38 c26 173 29 219 24
415 -2 116 -7 223 -11 237 -3 14 -9 41 -12 60 -12 70 -49 195 -79 265 -26 61
-69 150 -74 155 -3 3 -15 21 -25 40 -40 72 -157 218 -252 314 -156 157 -332
301 -624 514 -103 74 -429 288 -610 399 -587 362 -959 615 -1204 820 -269 225
-526 561 -654 853 -56 127 -105 304 -138 495 -24 140 -24 533 1 695 84 562
329 938 810 1246 147 94 442 219 585 247 14 3 70 14 125 25 55 12 138 26 185
32 47 7 87 14 89 16 12 12 524 3 639 -11z m4404 -3620 c178 -34 272 -80 366
-179 136 -145 179 -320 127 -521 -60 -228 -242 -429 -500 -552 -41 -19 -75
-37 -75 -39 0 -2 30 -47 68 -98 89 -125 167 -235 223 -315 109 -158 262 -366
269 -369 4 -2 20 30 35 70 15 40 40 105 55 143 115 287 140 354 140 369 0 14
-14 16 -110 16 l-110 0 0 35 0 35 340 0 340 0 0 -35 0 -35 -144 0 c-136 0
-146 -1 -169 -22 -17 -15 -59 -107 -122 -268 -54 -135 -104 -258 -111 -275
-27 -61 -54 -136 -54 -150 0 -16 368 -534 411 -580 27 -28 35 -30 122 -35 l92
-5 0 -30 0 -30 -213 -6 c-118 -4 -248 -9 -290 -13 l-77 -6 -114 165 c-99 142
-141 189 -141 157 0 -22 -138 -155 -212 -204 -193 -130 -389 -173 -638 -143
-204 26 -349 95 -475 226 -87 92 -148 191 -187 307 -27 78 -30 100 -31 217 0
147 17 238 66 345 100 218 286 377 547 470 44 15 76 33 78 41 2 9 -17 42 -40
75 -76 104 -175 267 -203 334 -55 131 -67 202 -62 350 6 149 20 202 82 296 41
61 142 157 194 183 148 76 362 107 523 76z m-6613 -1897 c26 -273 90 -635 141
-803 49 -161 73 -233 81 -247 5 -10 9 -23 9 -28 0 -6 10 -32 21 -58 34 -74 79
-184 79 -193 0 -5 -135 -9 -300 -9 l-300 0 0 288 c0 158 3 486 7 730 l6 442
122 0 122 0 12 -122z m-205 -1713 c73 -19 186 -70 186 -85 0 -12 -58 -130 -64
-130 -2 0 -32 13 -68 29 -132 60 -267 64 -321 9 -25 -25 -29 -34 -24 -65 7
-42 37 -77 80 -93 18 -6 40 -16 49 -21 10 -5 24 -9 32 -9 27 0 201 -71 240
-98 99 -68 117 -260 33 -351 -31 -33 -84 -65 -141 -84 -65 -22 -218 -23 -294
-1 -61 18 -172 73 -210 104 l-24 20 32 65 c32 66 48 77 70 50 25 -30 136 -84
207 -101 64 -15 80 -16 129 -4 37 9 66 24 86 44 26 26 29 35 25 69 -3 21 -13
47 -22 57 -22 24 -88 56 -160 76 -104 29 -209 76 -243 108 -50 46 -66 90 -66
171 0 74 10 100 63 158 75 83 255 119 405 82z m2376 -6 c0 -5 -4 -17 -10 -27
-14 -27 -31 -67 -156 -377 -64 -159 -136 -337 -159 -395 l-42 -105 -87 -3
c-59 -2 -86 1 -86 9 0 6 -6 25 -14 42 -8 18 -28 68 -45 112 -18 44 -36 89 -41
100 -5 11 -35 85 -66 165 -56 145 -67 173 -98 242 -9 20 -16 42 -16 50 0 8 -3
17 -6 21 -12 11 -71 167 -66 172 12 11 161 5 169 -7 4 -7 18 -42 31 -78 36
-100 69 -190 90 -245 11 -27 40 -106 66 -175 26 -69 52 -134 57 -145 5 -11 13
-33 19 -48 9 -27 30 -29 30 -4 0 11 28 86 162 432 10 28 28 76 40 109 11 32
27 70 34 85 8 14 14 32 14 39 0 6 8 20 18 30 14 14 31 16 90 14 39 -2 72 -8
72 -13z m1774 6 c73 -19 186 -70 186 -85 0 -12 -58 -130 -64 -130 -2 0 -34 14
-71 31 -172 78 -345 53 -345 -50 0 -53 52 -92 171 -131 259 -84 319 -139 319
-292 0 -121 -60 -196 -194 -241 -66 -22 -223 -23 -297 -1 -107 32 -219 99
-219 131 0 24 49 123 61 123 6 0 28 -13 48 -29 51 -40 106 -66 179 -85 79 -20
101 -20 162 0 65 21 83 43 82 100 -1 75 -24 92 -217 154 -131 42 -186 71 -224
117 -66 80 -63 212 7 293 80 95 257 135 416 95z m4162 -1 c38 -8 93 -27 124
-41 76 -36 167 -130 210 -218 34 -69 35 -72 35 -195 0 -121 -1 -127 -33 -191
-55 -114 -156 -206 -272 -248 -56 -21 -165 -29 -248 -20 -157 17 -308 125
-375 266 -31 65 -32 73 -32 193 0 120 1 128 32 193 60 127 182 224 328 258 90
22 148 23 231 3z m1526 -1 c67 -25 105 -58 123 -108 22 -56 15 -134 -16 -179
-24 -35 -97 -94 -146 -120 -18 -9 -33 -22 -33 -29 0 -7 40 -52 89 -101 l89
-89 21 34 c12 19 29 53 38 76 10 24 25 43 33 43 8 0 32 -15 53 -33 l38 -32
-16 -38 c-8 -20 -30 -60 -47 -89 l-32 -51 72 -64 c40 -36 72 -70 72 -76 0 -12
-60 -77 -71 -77 -4 0 -38 29 -74 65 -39 37 -72 62 -79 58 -6 -4 -31 -21 -56
-38 -72 -51 -125 -67 -215 -68 -66 0 -90 5 -135 26 -103 49 -150 120 -150 227
0 94 25 139 119 209 64 49 70 56 56 70 -8 9 -26 43 -40 74 -29 66 -34 156 -10
203 49 100 203 152 317 107z m2582 2 c73 -19 186 -70 186 -85 0 -12 -58 -130
-64 -130 -2 0 -34 14 -71 31 -173 78 -345 53 -345 -51 0 -54 48 -91 170 -130
265 -85 325 -142 318 -302 -3 -66 -7 -82 -33 -120 -36 -50 -90 -89 -159 -112
-66 -21 -224 -22 -297 0 -102 30 -219 100 -219 130 0 25 49 124 61 124 6 0 28
-13 48 -29 50 -40 107 -67 178 -85 77 -20 108 -20 167 0 56 19 79 50 78 105
-1 70 -27 88 -217 149 -55 18 -121 43 -146 56 -135 68 -169 232 -74 352 76 95
258 137 419 97z m1029 -1 c143 -32 267 -126 326 -247 88 -179 54 -393 -83
-527 -106 -104 -204 -143 -357 -143 -235 1 -410 130 -478 354 -15 50 -14 158
4 224 42 163 178 294 348 336 91 22 150 23 240 3z m1182 -3 c39 -10 90 -28
115 -40 46 -21 120 -77 120 -89 0 -4 -20 -31 -44 -60 l-44 -52 -29 24 c-142
119 -341 116 -461 -8 -57 -58 -82 -113 -89 -193 -13 -161 71 -287 224 -336 97
-32 201 -14 295 49 29 20 55 36 60 37 4 1 25 -20 48 -47 38 -46 40 -50 24 -67
-27 -30 -107 -78 -175 -105 -52 -20 -82 -25 -160 -26 -156 -1 -265 45 -367
157 -60 65 -88 123 -109 223 -13 64 -14 88 -4 142 17 91 39 147 83 208 118
160 322 233 513 183z m-13667 -13 c6 -13 33 -77 61 -143 27 -67 63 -151 80
-188 17 -36 42 -94 56 -127 14 -33 39 -90 55 -125 16 -35 41 -91 55 -124 14
-33 36 -85 50 -115 14 -30 25 -60 25 -65 0 -7 -31 -11 -83 -11 l-83 0 -40 103
-41 102 -224 2 c-123 2 -229 0 -234 -5 -6 -4 -29 -50 -51 -102 l-40 -95 -82
-3 c-45 -2 -82 1 -82 6 0 4 8 26 19 48 10 21 25 55 34 74 8 19 29 66 46 103
17 38 31 70 31 72 0 2 15 36 34 77 18 40 48 107 66 148 18 41 41 93 51 116 10
23 36 81 57 130 71 161 54 144 147 144 75 0 83 -2 93 -22z m2151 -78 c21 -52
50 -121 65 -152 14 -31 58 -130 97 -220 39 -90 97 -225 130 -300 32 -75 59
-139 59 -142 0 -12 -158 -6 -167 7 -6 6 -25 50 -44 97 -18 47 -38 88 -43 92
-6 5 -112 7 -235 5 l-225 -2 -41 -100 -42 -100 -82 -3 c-94 -3 -92 -8 -45 93
56 123 84 187 84 190 0 2 14 34 31 72 37 81 66 147 84 188 7 17 27 61 44 98
17 38 31 70 31 72 0 2 16 39 36 82 20 43 40 88 45 101 8 22 13 23 94 20 l86
-3 38 -95z m2171 30 l0 -69 -142 -3 -143 -3 -5 -385 -5 -385 -77 -3 -78 -3 -2
388 -3 388 -140 0 -140 0 -3 73 -3 72 371 0 370 0 0 -70z m714 38 c8 -18 26
-60 39 -93 28 -67 125 -291 161 -369 13 -28 43 -96 66 -151 23 -55 58 -133 76
-173 19 -41 34 -80 34 -88 0 -11 -17 -14 -80 -14 -78 0 -81 1 -91 27 -6 15
-16 41 -24 58 -7 16 -23 51 -34 78 l-20 47 -228 -2 -227 -3 -13 -25 c-7 -14
-21 -45 -31 -70 -11 -25 -25 -60 -33 -77 l-14 -33 -83 0 c-46 0 -82 3 -80 8
25 52 88 194 88 197 0 3 11 28 24 57 13 29 41 91 62 138 20 47 52 118 70 158
19 41 34 75 34 77 0 3 34 81 86 193 13 29 24 56 24 60 0 23 30 32 102 32 l77
0 15 -32z m809 0 c273 -373 451 -607 458 -602 5 3 9 143 9 320 l0 314 75 0 75
0 0 -460 0 -460 -78 0 -77 0 -211 283 c-116 155 -222 299 -235 319 -13 21 -27
38 -31 38 -5 0 -8 -144 -8 -320 l0 -320 -80 0 -80 0 0 460 0 460 79 0 c79 0
80 -1 104 -32z m4547 0 c7 -18 20 -51 30 -73 10 -22 30 -69 45 -105 15 -36 43
-98 61 -138 19 -41 34 -75 34 -77 0 -3 11 -28 24 -57 65 -143 186 -424 186
-434 0 -11 -159 -3 -167 9 -6 6 -25 50 -44 97 -19 47 -38 88 -44 92 -5 5 -111
7 -234 5 l-225 -2 -41 -100 -42 -100 -82 -3 c-95 -3 -92 -11 -39 108 16 36 33
74 38 85 64 146 81 183 119 268 17 38 31 70 31 72 0 2 14 34 31 72 17 37 37
82 44 98 7 17 28 62 45 100 18 39 36 80 41 93 8 20 15 22 93 22 l84 0 12 -32z
m3878 -748 c16 -15 22 -33 22 -61 0 -108 -149 -124 -166 -17 -5 28 -1 44 15
67 19 26 29 31 65 31 29 0 49 -7 64 -20z m-13303 -666 c28 -7 60 -20 72 -29
20 -14 21 -19 11 -43 -18 -43 -22 -44 -72 -22 -52 23 -164 36 -220 26 -20 -4
-52 -21 -71 -38 -30 -26 -35 -36 -35 -73 0 -35 5 -48 29 -67 35 -30 58 -39
189 -73 162 -43 222 -95 222 -191 0 -150 -142 -233 -351 -205 -80 11 -187 53
-196 78 -3 7 1 26 8 43 14 30 32 39 44 20 11 -18 90 -49 158 -61 113 -21 205
10 233 77 12 29 12 39 0 68 -17 40 -66 66 -186 97 -169 43 -233 88 -245 172
-28 183 168 288 410 221z m4248 15 c132 -21 240 -98 290 -207 17 -39 21 -66
22 -157 0 -102 -2 -114 -30 -168 -74 -147 -240 -227 -414 -198 -129 21 -225
91 -281 205 -109 222 22 476 270 522 36 7 66 13 68 13 2 1 36 -4 75 -10z
m-4993 -44 l0 -45 -205 0 -206 0 3 -112 3 -113 180 -5 180 -5 3 -37 3 -38
-183 -2 -183 -3 -3 -117 -3 -118 200 0 c110 0 206 -3 215 -6 11 -4 16 -19 16
-45 l0 -39 -265 0 -265 0 0 365 0 365 255 0 255 0 0 -45z m1705 0 l0 -40 -120
-5 -120 -5 -3 -317 -2 -318 -50 0 -50 0 0 320 0 319 -122 3 -123 3 -3 28 c-7
60 -19 58 300 55 l293 -3 0 -40z m405 -210 c6 -278 9 -296 73 -352 67 -59 204
-58 275 3 65 56 72 89 72 366 l0 238 44 0 c40 0 44 -3 50 -27 3 -16 4 -131 1
-258 -3 -191 -7 -238 -22 -275 -28 -70 -69 -117 -130 -147 -49 -23 -68 -27
-152 -27 -86 -1 -102 2 -153 27 -65 32 -110 80 -135 146 -14 38 -17 91 -21
304 l-4 258 49 -3 48 -3 5 -250z m1380 229 c104 -42 169 -99 209 -184 23 -48
26 -68 26 -160 0 -95 -3 -110 -29 -162 -31 -63 -83 -116 -145 -148 -80 -40
-145 -50 -338 -50 l-183 0 0 358 c0 197 3 362 8 366 4 5 97 6 207 3 161 -4
209 -9 245 -23z m698 -341 l2 -363 -50 0 -50 0 0 366 0 365 48 -3 47 -3 3
-362z m2260 75 c2 -276 1 -289 -19 -333 -29 -61 -73 -93 -147 -106 -77 -14
-148 0 -207 41 -53 36 -57 47 -33 83 24 33 32 34 66 2 15 -14 49 -32 75 -41
45 -15 52 -15 91 0 77 29 81 45 81 316 l0 235 -130 5 -130 5 -3 43 -3 42 178
-2 178 -3 3 -287z m502 66 c0 -258 10 -316 65 -371 79 -79 262 -66 320 23 32
50 45 150 45 367 l0 207 45 0 45 0 0 -245 c0 -220 -2 -251 -20 -302 -27 -77
-66 -122 -135 -158 -53 -27 -67 -30 -154 -29 -82 1 -103 4 -146 26 -63 32 -98
67 -127 126 -22 45 -23 59 -26 315 l-3 267 46 0 45 0 0 -226z m1351 202 c62
-22 110 -64 138 -121 20 -41 23 -58 19 -124 -5 -92 -36 -148 -103 -189 -25
-15 -45 -30 -45 -33 0 -4 34 -55 75 -113 41 -59 77 -111 80 -116 4 -6 -16 -10
-47 -10 l-53 1 -75 107 -76 107 -117 3 -116 3 -3 -108 -3 -108 -47 -3 -48 -3
0 359 c0 197 3 362 8 366 14 15 363 -1 413 -18z m621 -341 l3 -365 -47 0 -48
0 0 365 0 365 45 0 45 0 2 -365z m866 340 c133 -48 199 -116 238 -244 51 -168
-46 -366 -212 -432 -54 -21 -77 -24 -266 -27 l-208 -3 0 359 c0 197 3 362 8
366 4 5 95 6 202 3 143 -4 207 -10 238 -22z m702 -340 l0 -365 -50 0 -50 0 0
359 c0 278 3 360 13 364 6 3 29 6 50 6 l37 1 0 -365z m910 336 c59 -31 100
-62 100 -76 0 -10 -22 -33 -48 -49 -7 -4 -31 6 -56 23 -116 80 -297 55 -388
-53 -64 -77 -79 -214 -32 -311 27 -58 62 -93 128 -128 33 -17 58 -21 131 -21
94 0 133 12 182 56 21 20 22 20 47 2 51 -38 41 -62 -42 -107 -102 -55 -264
-56 -376 -1 -67 33 -138 105 -168 171 -18 40 -22 67 -22 158 0 97 2 116 24
160 43 88 144 172 235 196 17 4 77 7 135 6 87 -3 112 -7 150 -26z m956 -4 c66
-33 108 -69 142 -121 50 -74 64 -127 60 -229 -2 -78 -8 -101 -32 -150 -75
-148 -231 -223 -412 -197 -155 21 -265 115 -308 262 -57 198 58 403 259 459
17 4 77 7 135 5 90 -2 112 -6 156 -29z"/>
<path d="M11972 8647 c-24 -61 -54 -141 -68 -177 -14 -36 -32 -82 -40 -102
-26 -69 -47 -123 -59 -153 -7 -16 -20 -50 -28 -75 -14 -42 -28 -78 -48 -125
-5 -11 -67 -175 -139 -365 -72 -190 -134 -354 -139 -365 -6 -11 -26 -65 -46
-120 -20 -55 -45 -120 -55 -145 -10 -25 -31 -79 -45 -120 -15 -41 -33 -88 -40
-105 -7 -16 -27 -68 -45 -115 -17 -47 -38 -99 -46 -117 -8 -17 -14 -36 -14
-42 0 -6 -4 -19 -9 -29 -5 -9 -17 -37 -26 -62 -10 -25 -24 -59 -31 -77 -8 -17
-14 -36 -14 -42 0 -6 -5 -19 -10 -29 -13 -22 -320 -831 -320 -843 0 -5 546 -9
1260 -9 1100 0 1260 2 1260 15 0 8 -6 29 -14 47 -19 44 -34 85 -101 268 -32
85 -64 169 -71 187 -8 17 -14 37 -14 45 0 8 -4 18 -9 24 -4 5 -16 34 -27 64
-10 30 -22 59 -26 64 -4 6 -8 17 -8 25 0 9 -7 29 -15 45 -8 15 -15 33 -15 38
0 6 -6 24 -14 41 -8 18 -71 185 -141 372 -69 187 -131 348 -136 357 -5 10 -9
23 -9 29 0 6 -6 25 -14 42 -7 18 -53 138 -101 267 -48 129 -91 244 -96 255
-12 27 -57 149 -76 205 -8 25 -21 59 -28 75 -26 64 -48 120 -145 385 -40 107
-76 204 -81 215 -5 11 -24 63 -43 115 -49 136 -55 150 -63 150 -5 0 -27 -51
-51 -113z"/>
<path d="M7545 6421 c-97 -29 -114 -38 -164 -90 -64 -66 -85 -132 -85 -266 1
-131 34 -230 121 -367 55 -85 232 -334 245 -346 12 -9 27 -4 74 24 145 87 258
247 298 426 48 208 14 388 -96 513 -53 60 -101 90 -176 109 -77 20 -142 19
-217 -3z"/>
<path d="M7338 5073 c-169 -112 -275 -272 -319 -483 -19 -90 -16 -287 5 -379
69 -301 316 -468 626 -426 107 15 135 24 238 79 78 42 232 184 232 214 0 15
-45 85 -190 292 -25 36 -150 218 -279 403 -128 185 -239 337 -245 337 -6 0
-37 -17 -68 -37z"/>
<path d="M9092 2772 c-66 -24 -118 -65 -159 -126 -43 -63 -56 -116 -51 -202
17 -266 338 -390 545 -210 23 20 54 62 69 94 24 48 28 70 28 142 0 72 -5 94
-27 142 -30 62 -83 115 -149 149 -61 32 -183 37 -256 11z"/>
<path d="M10705 2833 c-81 -20 -96 -122 -32 -226 l23 -38 62 40 c64 42 102 89
102 129 0 72 -70 115 -155 95z"/>
<path d="M10603 2400 c-22 -17 -48 -41 -57 -55 -23 -34 -21 -112 4 -153 23
-38 93 -72 146 -72 40 0 132 40 159 70 17 19 14 22 -86 129 -57 61 -109 111
-115 111 -5 0 -28 -14 -51 -30z"/>
<path d="M14241 2779 c-118 -36 -215 -156 -228 -282 -7 -67 18 -156 59 -214
87 -120 271 -170 402 -108 60 28 140 107 162 161 69 165 1 354 -153 425 -55
25 -186 35 -242 18z"/>
<path d="M1864 2739 c-8 -12 -131 -296 -155 -356 l-9 -23 169 0 169 0 -70 168
c-96 231 -94 227 -104 211z"/>
<path d="M3904 2563 c-43 -102 -80 -190 -82 -195 -2 -4 71 -8 162 -8 91 0 166
3 166 7 0 5 -31 83 -70 174 -38 92 -70 171 -70 177 0 5 -6 15 -14 21 -10 9
-28 -25 -92 -176z"/>
<path d="M6866 2673 c-16 -38 -38 -88 -48 -113 -11 -25 -23 -54 -28 -65 -30
-69 -50 -119 -50 -126 0 -5 74 -9 165 -9 187 0 173 -11 123 99 -15 35 -47 112
-71 172 -23 60 -47 109 -52 109 -6 0 -23 -30 -39 -67z"/>
<path d="M12174 2563 c-44 -102 -80 -190 -82 -194 -2 -5 71 -9 162 -9 91 0
166 4 166 8 0 7 -44 113 -87 212 -11 25 -30 71 -43 103 -12 31 -26 59 -30 62
-4 3 -43 -79 -86 -182z"/>
<path d="M7047 1410 c-88 -22 -146 -68 -188 -150 -20 -37 -24 -60 -24 -130 1
-93 12 -123 67 -185 17 -20 52 -48 77 -63 41 -24 56 -27 136 -27 76 0 98 4
138 25 97 49 151 141 150 255 0 157 -104 268 -260 280 -32 2 -75 0 -96 -5z"/>
<path d="M5327 1403 c-4 -3 -7 -127 -7 -275 l0 -268 148 0 c133 0 152 2 197
24 106 49 155 128 155 251 0 91 -27 154 -90 207 -61 53 -121 68 -269 68 -70 0
-131 -3 -134 -7z"/>
<path d="M10170 1246 l0 -166 128 0 c113 0 133 3 172 23 57 29 81 70 81 141 0
67 -19 107 -68 138 -34 21 -52 23 -175 26 l-138 4 0 -166z"/>
<path d="M11630 1135 l0 -277 158 4 c142 3 161 6 197 27 113 65 161 173 136
305 -14 77 -60 140 -131 180 -54 30 -58 31 -207 35 l-153 3 0 -277z"/>
<path d="M14290 1407 c-121 -34 -193 -120 -206 -243 -12 -117 41 -221 144
-282 42 -24 57 -27 137 -27 75 0 98 4 135 23 88 46 127 100 151 205 20 93 -12
189 -88 262 -62 60 -183 87 -273 62z"/>
</g>
</svg>
